<?xml version="1.0" encoding="UTF-8" standalone="no"?>
<!-- Created with Inkscape (http://www.inkscape.org/) -->

<svg
   width="400"
   height="400"
   viewBox="0 0 400 400"
   version="1.1"
   id="svg1"
   xml:space="preserve"
   inkscape:export-filename="bitmap.png"
   inkscape:export-xdpi="96"
   inkscape:export-ydpi="96"
   xmlns:inkscape="http://www.inkscape.org/namespaces/inkscape"
   xmlns:sodipodi="http://sodipodi.sourceforge.net/DTD/sodipodi-0.dtd"
   xmlns="http://www.w3.org/2000/svg"
   xmlns:svg="http://www.w3.org/2000/svg"><sodipodi:namedview
     id="namedview1"
     pagecolor="#ffffff"
     bordercolor="#ffffff"
     borderopacity="1"
     inkscape:showpageshadow="0"
     inkscape:pageopacity="0"
     inkscape:pagecheckerboard="1"
     inkscape:deskcolor="#505050"
     inkscape:document-units="px" /><defs
     id="defs1" /><g
     inkscape:label="Layer 1"
     inkscape:groupmode="layer"
     id="layer1"><path
       style="fill:#ffcc00;fill-opacity:1;stroke-width:0.617681"
       d="m 186.60735,367.47565 c -12.71206,-0.69607 6.90818,-12.71606 10.23763,-18.55559 36.1478,-35.2831 78.40606,-68.26439 97.11415,-116.91217 10.13577,-24.97581 13.06662,-53.12165 6.05617,-79.30887 12.35242,12.75475 20.15819,30.93824 18.50201,48.93106 -0.27843,29.84388 -16.21165,57.00531 -33.0459,80.64396 -17.81189,24.40732 -40.24433,44.88247 -62.11837,65.53253 39.74736,-9.96446 70.46817,-42.01308 89.52517,-77.06956 10.5681,-19.44378 18.73718,-40.86637 18.64606,-63.27614 8.15127,25.87569 6.83007,55.02726 -5.98773,79.22933 -23.46935,47.87973 -74.38265,82.90079 -128.57702,81.07931 -3.4383,-0.0595 -6.94737,0.28781 -10.35217,-0.29386 z m -38.34552,-6.64255 c -4.52076,-3.86087 -16.02296,-5.2165 -11.84573,-12.93397 16.00144,-38.3549 43.39251,-70.02957 70.91687,-100.52104 19.16416,-22.03606 36.48815,-48.05753 38.90649,-77.94459 -27.31415,44.0978 -69.16663,77.57631 -96.78072,121.74596 -11.11238,16.44408 -20.14525,34.13167 -28.93949,51.88541 -29.81577,-23.34525 -54.078119,-57.74819 -57.007547,-96.3718 -0.706211,-9.76343 1.176106,-34.57483 5.183022,-35.20664 2.369211,32.62987 18.442561,62.62715 36.920865,88.94998 4.62381,5.45958 11.86406,21.0705 14.77698,5.99845 21.25757,-39.92515 51.88334,-73.53185 82.09356,-106.76347 19.49268,-22.41605 40.58972,-48.91182 37.74218,-80.50994 -0.061,-14.06482 -3.95325,-27.851485 -9.60785,-40.634608 17.74768,14.131851 27.23809,36.358158 29.93385,58.605908 7.38766,32.40144 -0.64213,66.94529 -19.53017,94.02621 -25.01987,36.30289 -59.54572,65.63474 -79.93233,105.23712 -8.45512,12.70906 9.61047,-6.93604 13.4458,-10.18239 35.78978,-34.71161 77.12388,-68.15586 94.10199,-116.79837 9.74067,-29.93378 9.04537,-64.12369 -4.08756,-92.9262 -4.29457,-8.0076 11.86488,11.38685 13.70974,14.32778 20.48433,28.016 15.38799,66.08184 2.07165,96.00288 -23.76907,52.5603 -71.02848,88.17735 -110.82217,127.95616 -5.32464,5.58911 -13.57177,11.72306 -21.24943,6.05716 z m -30.4155,-75.47204 c -17.05891,-23.16147 -31.749829,-49.67793 -35.119743,-78.62645 -1.915463,-17.48923 2.091879,-35.16517 13.21157,-49.11711 3.480269,-5.35704 7.446773,-9.93108 3.757484,-0.0849 -7.493626,38.60813 6.926789,78.07648 30.150459,108.70152 2.88234,7.35212 -6.14757,14.54456 -8.42813,21.86376 -0.48705,2.8903 -2.69235,-2.42176 -3.57164,-2.73684 z m 15.08446,-46.18291 c -18.35264,-28.96267 -27.5813,-67.93525 -11.82678,-100.00506 4.58037,-8.97597 15.71315,-22.338 21.01767,-25.02953 -15.26705,30.13809 -16.50672,67.36696 -2.94273,98.33894 7.27504,-10.85994 23.84827,-23.36314 27.43242,-36.09169 -14.16251,-27.42954 -17.36576,-62.50815 -0.50511,-89.540491 10.88678,-18.263177 23.69198,-35.396256 32.81088,-54.687732 19.30781,28.919027 33.35159,66.518799 19.66954,100.690283 -15.50501,36.84676 -46.64966,63.59294 -69.51582,95.61705 -4.15648,5.4755 -8.26429,10.98771 -12.39457,16.48297 -1.24851,-1.92491 -2.497,-3.84983 -3.7455,-5.77474 z m 52.64969,-82.36703 c 15.66763,-19.44455 25.94434,-44.98871 19.72593,-70.11049 -1.89522,-8.11474 -6.13575,-27.686076 -12.41528,-11.00377 -11.97792,17.812174 -24.56745,37.926 -20.87134,60.45119 1.85845,6.36377 5.32072,38.08916 13.56069,20.66307 z"
       id="path1"
       sodipodi:nodetypes="cccccccccccccccccccccccccccccccccccscccccsscccccccccccccccc" /></g></svg>
